<?xml version="1.0" encoding="utf-8" standalone="no"?>
<!DOCTYPE svg PUBLIC "-//W3C//DTD SVG 1.1//EN"
  "http://www.w3.org/Graphics/SVG/1.1/DTD/svg11.dtd">
<!-- Created with matplotlib (http://matplotlib.org/) -->
<svg height="432pt" version="1.1" viewBox="0 0 576 432" width="576pt" xmlns="http://www.w3.org/2000/svg" xmlns:xlink="http://www.w3.org/1999/xlink">
 <defs>
  <style type="text/css">
*{stroke-linecap:butt;stroke-linejoin:round;}
  </style>
 </defs>
 <g id="figure_1">
  <g id="patch_1">
   <path d="
M0 432
L576 432
L576 0
L0 0
z
" style="fill:#ffffff;"/>
  </g>
  <g id="axes_1">
   <g id="patch_2">
    <path clip-path="url(#p7ff5b81e1d)" d="
M138.96 281.1
L483.06 281.1
L483.06 158.34
L138.96 158.34
z
" style="fill:#ffffff;"/>
   </g>
   <g id="patch_3">
    <path clip-path="url(#p7ff5b81e1d)" d="
M179.237 245.016
L183.264 245.016
L183.264 233.856
L179.237 233.856
z
" style="fill:#4daf4a;"/>
   </g>
   <g id="patch_4">
    <path clip-path="url(#p7ff5b81e1d)" d="
M183.267 243.528
L188.57 243.528
L188.57 232.368
L183.267 232.368
z
" style="fill:#40cf40;"/>
   </g>
   <g id="patch_5">
    <path clip-path="url(#p7ff5b81e1d)" d="
M188.993 245.016
L192.448 245.016
L192.448 233.856
L188.993 233.856
z
" style="fill:#4daf4a;"/>
   </g>
   <g id="patch_6">
    <path clip-path="url(#p7ff5b81e1d)" d="
M194.855 243.528
L199.56 243.528
L199.56 232.368
L194.855 232.368
z
" style="fill:#40cf40;"/>
   </g>
   <g id="patch_7">
    <path clip-path="url(#p7ff5b81e1d)" d="
M199.563 245.016
L205.179 245.016
L205.179 233.856
L199.563 233.856
z
" style="fill:#4daf4a;"/>
   </g>
   <g id="patch_8">
    <path clip-path="url(#p7ff5b81e1d)" d="
M205.182 243.528
L208.274 243.528
L208.274 232.368
L205.182 232.368
z
" style="fill:#40cf40;"/>
   </g>
   <g id="patch_9">
    <path clip-path="url(#p7ff5b81e1d)" d="
M208.277 245.016
L209.72 245.016
L209.72 233.856
L208.277 233.856
z
" style="fill:#4daf4a;"/>
   </g>
   <g id="patch_10">
    <path clip-path="url(#p7ff5b81e1d)" d="
M209.789 243.528
L211.851 243.528
L211.851 232.368
L209.789 232.368
z
" style="fill:#40cf40;"/>
   </g>
   <g id="patch_11">
    <path clip-path="url(#p7ff5b81e1d)" d="
M211.854 245.016
L213.678 245.016
L213.678 233.856
L211.854 233.856
z
" style="fill:#4daf4a;"/>
   </g>
   <g id="patch_12">
    <path clip-path="url(#p7ff5b81e1d)" d="
M213.681 243.528
L215.318 243.528
L215.318 232.368
L213.681 232.368
z
" style="fill:#40cf40;"/>
   </g>
   <g id="patch_13">
    <path clip-path="url(#p7ff5b81e1d)" d="
M215.321 245.016
L216.803 245.016
L216.803 233.856
L215.321 233.856
z
" style="fill:#4daf4a;"/>
   </g>
   <g id="patch_14">
    <path clip-path="url(#p7ff5b81e1d)" d="
M216.806 243.528
L220.955 243.528
L220.955 232.368
L216.806 232.368
z
" style="fill:#40cf40;"/>
   </g>
   <g id="patch_15">
    <path clip-path="url(#p7ff5b81e1d)" d="
M220.958 245.016
L223.794 245.016
L223.794 233.856
L220.958 233.856
z
" style="fill:#4daf4a;"/>
   </g>
   <g id="patch_16">
    <path clip-path="url(#p7ff5b81e1d)" d="
M226.309 243.528
L227.808 243.528
L227.808 232.368
L226.309 232.368
z
" style="fill:#40cf40;"/>
   </g>
   <g id="patch_17">
    <path clip-path="url(#p7ff5b81e1d)" d="
M228.764 245.016
L232.987 245.016
L232.987 233.856
L228.764 233.856
z
" style="fill:#4daf4a;"/>
   </g>
   <g id="patch_18">
    <path clip-path="url(#p7ff5b81e1d)" d="
M232.99 243.528
L237.004 243.528
L237.004 232.368
L232.99 232.368
z
" style="fill:#40cf40;"/>
   </g>
   <g id="patch_19">
    <path clip-path="url(#p7ff5b81e1d)" d="
M239.147 245.016
L253.17 245.016
L253.17 233.856
L239.147 233.856
z
" style="fill:#4daf4a;"/>
   </g>
   <g id="patch_20">
    <path clip-path="url(#p7ff5b81e1d)" d="
M253.173 243.528
L254.735 243.528
L254.735 232.368
L253.173 232.368
z
" style="fill:#40cf40;"/>
   </g>
   <g id="patch_21">
    <path clip-path="url(#p7ff5b81e1d)" d="
M255.613 245.016
L261.291 245.016
L261.291 233.856
L255.613 233.856
z
" style="fill:#4daf4a;"/>
   </g>
   <g id="patch_22">
    <path clip-path="url(#p7ff5b81e1d)" d="
M261.294 243.528
L265.895 243.528
L265.895 232.368
L261.294 232.368
z
" style="fill:#40cf40;"/>
   </g>
   <g id="patch_23">
    <path clip-path="url(#p7ff5b81e1d)" d="
M268.095 245.016
L271.63 245.016
L271.63 233.856
L268.095 233.856
z
" style="fill:#4daf4a;"/>
   </g>
   <g id="patch_24">
    <path clip-path="url(#p7ff5b81e1d)" d="
M271.633 243.528
L275.282 243.528
L275.282 232.368
L271.633 232.368
z
" style="fill:#40cf40;"/>
   </g>
   <g id="patch_25">
    <path clip-path="url(#p7ff5b81e1d)" d="
M275.285 245.016
L277.692 245.016
L277.692 233.856
L275.285 233.856
z
" style="fill:#4daf4a;"/>
   </g>
   <g id="patch_26">
    <path clip-path="url(#p7ff5b81e1d)" d="
M277.695 243.528
L281.124 243.528
L281.124 232.368
L277.695 232.368
z
" style="fill:#40cf40;"/>
   </g>
   <g id="patch_27">
    <path clip-path="url(#p7ff5b81e1d)" d="
M281.126 245.016
L286.067 245.016
L286.067 233.856
L281.126 233.856
z
" style="fill:#4daf4a;"/>
   </g>
   <g id="patch_28">
    <path clip-path="url(#p7ff5b81e1d)" d="
M287.055 243.528
L289.093 243.528
L289.093 232.368
L287.055 232.368
z
" style="fill:#40cf40;"/>
   </g>
   <g id="patch_29">
    <path clip-path="url(#p7ff5b81e1d)" d="
M289.096 245.016
L293.019 245.016
L293.019 233.856
L289.096 233.856
z
" style="fill:#4daf4a;"/>
   </g>
   <g id="patch_30">
    <path clip-path="url(#p7ff5b81e1d)" d="
M294.831 243.528
L298.581 243.528
L298.581 232.368
L294.831 232.368
z
" style="fill:#40cf40;"/>
   </g>
   <g id="patch_31">
    <path clip-path="url(#p7ff5b81e1d)" d="
M298.584 245.016
L309.095 245.016
L309.095 233.856
L298.584 233.856
z
" style="fill:#4daf4a;"/>
   </g>
   <g id="patch_32">
    <path clip-path="url(#p7ff5b81e1d)" d="
M311.053 243.528
L314.169 243.528
L314.169 232.368
L311.053 232.368
z
" style="fill:#40cf40;"/>
   </g>
   <g id="patch_33">
    <path clip-path="url(#p7ff5b81e1d)" d="
M314.172 245.016
L316.431 245.016
L316.431 233.856
L314.172 233.856
z
" style="fill:#4daf4a;"/>
   </g>
   <g id="patch_34">
    <path clip-path="url(#p7ff5b81e1d)" d="
M317.163 243.528
L319.597 243.528
L319.597 232.368
L317.163 232.368
z
" style="fill:#40cf40;"/>
   </g>
   <g id="patch_35">
    <path clip-path="url(#p7ff5b81e1d)" d="
M319.74 245.016
L325.636 245.016
L325.636 233.856
L319.74 233.856
z
" style="fill:#4daf4a;"/>
   </g>
   <g id="patch_36">
    <path clip-path="url(#p7ff5b81e1d)" d="
M326.665 243.528
L332.48 243.528
L332.48 232.368
L326.665 232.368
z
" style="fill:#40cf40;"/>
   </g>
   <g id="patch_37">
    <path clip-path="url(#p7ff5b81e1d)" d="
M332.483 245.016
L334.269 245.016
L334.269 233.856
L332.483 233.856
z
" style="fill:#4daf4a;"/>
   </g>
   <g id="patch_38">
    <path clip-path="url(#p7ff5b81e1d)" d="
M334.736 243.528
L339.459 243.528
L339.459 232.368
L334.736 232.368
z
" style="fill:#40cf40;"/>
   </g>
   <g id="patch_39">
    <path clip-path="url(#p7ff5b81e1d)" d="
M339.462 245.016
L343.161 245.016
L343.161 233.856
L339.462 233.856
z
" style="fill:#4daf4a;"/>
   </g>
   <g id="patch_40">
    <path clip-path="url(#p7ff5b81e1d)" d="
M343.164 243.528
L345.801 243.528
L345.801 232.368
L343.164 232.368
z
" style="fill:#40cf40;"/>
   </g>
   <g id="patch_41">
    <path clip-path="url(#p7ff5b81e1d)" d="
M345.804 245.016
L349.134 245.016
L349.134 233.856
L345.804 233.856
z
" style="fill:#4daf4a;"/>
   </g>
   <g id="patch_42">
    <path clip-path="url(#p7ff5b81e1d)" d="
M349.137 243.528
L353.833 243.528
L353.833 232.368
L349.137 232.368
z
" style="fill:#40cf40;"/>
   </g>
   <g id="patch_43">
    <path clip-path="url(#p7ff5b81e1d)" d="
M353.872 245.016
L356.806 245.016
L356.806 233.856
L353.872 233.856
z
" style="fill:#4daf4a;"/>
   </g>
   <g id="patch_44">
    <path clip-path="url(#p7ff5b81e1d)" d="
M357.02 243.528
L358.601 243.528
L358.601 232.368
L357.02 232.368
z
" style="fill:#40cf40;"/>
   </g>
   <g id="patch_45">
    <path clip-path="url(#p7ff5b81e1d)" d="
M359.416 245.016
L361.101 245.016
L361.101 233.856
L359.416 233.856
z
" style="fill:#4daf4a;"/>
   </g>
   <g id="patch_46">
    <path clip-path="url(#p7ff5b81e1d)" d="
M362.321 243.528
L364.437 243.528
L364.437 232.368
L362.321 232.368
z
" style="fill:#40cf40;"/>
   </g>
   <g id="patch_47">
    <path clip-path="url(#p7ff5b81e1d)" d="
M365.675 245.016
L370.573 245.016
L370.573 233.856
L365.675 233.856
z
" style="fill:#4daf4a;"/>
   </g>
   <g id="patch_48">
    <path clip-path="url(#p7ff5b81e1d)" d="
M370.576 243.528
L373.38 243.528
L373.38 232.368
L370.576 232.368
z
" style="fill:#40cf40;"/>
   </g>
   <g id="patch_49">
    <path clip-path="url(#p7ff5b81e1d)" d="
M373.635 245.016
L376.186 245.016
L376.186 233.856
L373.635 233.856
z
" style="fill:#4daf4a;"/>
   </g>
   <g id="patch_50">
    <path clip-path="url(#p7ff5b81e1d)" d="
M376.808 243.528
L382.73 243.528
L382.73 232.368
L376.808 232.368
z
" style="fill:#40cf40;"/>
   </g>
   <g id="patch_51">
    <path clip-path="url(#p7ff5b81e1d)" d="
M382.733 245.016
L385.757 245.016
L385.757 233.856
L382.733 233.856
z
" style="fill:#4daf4a;"/>
   </g>
   <g id="patch_52">
    <path clip-path="url(#p7ff5b81e1d)" d="
M385.76 243.528
L387.682 243.528
L387.682 232.368
L385.76 232.368
z
" style="fill:#40cf40;"/>
   </g>
   <g id="patch_53">
    <path clip-path="url(#p7ff5b81e1d)" d="
M388.614 245.016
L391.524 245.016
L391.524 233.856
L388.614 233.856
z
" style="fill:#4daf4a;"/>
   </g>
   <g id="patch_54">
    <path clip-path="url(#p7ff5b81e1d)" d="
M393.851 243.528
L395.426 243.528
L395.426 232.368
L393.851 232.368
z
" style="fill:#40cf40;"/>
   </g>
   <g id="patch_55">
    <path clip-path="url(#p7ff5b81e1d)" d="
M397.045 245.016
L401.363 245.016
L401.363 233.856
L397.045 233.856
z
" style="fill:#4daf4a;"/>
   </g>
   <g id="patch_56">
    <path clip-path="url(#p7ff5b81e1d)" d="
M401.652 243.528
L403.333 243.528
L403.333 232.368
L401.652 232.368
z
" style="fill:#40cf40;"/>
   </g>
   <g id="patch_57">
    <path clip-path="url(#p7ff5b81e1d)" d="
M408.842 245.016
L411.282 245.016
L411.282 233.856
L408.842 233.856
z
" style="fill:#4daf4a;"/>
   </g>
   <g id="patch_58">
    <path clip-path="url(#p7ff5b81e1d)" d="
M412.913 243.528
L414.66 243.528
L414.66 232.368
L412.913 232.368
z
" style="fill:#40cf40;"/>
   </g>
   <g id="patch_59">
    <path clip-path="url(#p7ff5b81e1d)" d="
M414.663 245.016
L419.15 245.016
L419.15 233.856
L414.663 233.856
z
" style="fill:#4daf4a;"/>
   </g>
   <g id="patch_60">
    <path clip-path="url(#p7ff5b81e1d)" d="
M421.662 243.528
L424.296 243.528
L424.296 232.368
L421.662 232.368
z
" style="fill:#40cf40;"/>
   </g>
   <g id="patch_61">
    <path clip-path="url(#p7ff5b81e1d)" d="
M424.665 245.016
L426.87 245.016
L426.87 233.856
L424.665 233.856
z
" style="fill:#4daf4a;"/>
   </g>
   <g id="patch_62">
    <path clip-path="url(#p7ff5b81e1d)" d="
M427.65 243.528
L431.001 243.528
L431.001 232.368
L427.65 232.368
z
" style="fill:#40cf40;"/>
   </g>
   <g id="patch_63">
    <path clip-path="url(#p7ff5b81e1d)" d="
M431.572 245.016
L437.185 245.016
L437.185 233.856
L431.572 233.856
z
" style="fill:#4daf4a;"/>
   </g>
   <g id="patch_64">
    <path clip-path="url(#p7ff5b81e1d)" d="
M437.188 243.528
L440.348 243.528
L440.348 232.368
L437.188 232.368
z
" style="fill:#40cf40;"/>
   </g>
   <g id="patch_65">
    <path clip-path="url(#p7ff5b81e1d)" d="
M442 245.016
L444.533 245.016
L444.533 233.856
L442 233.856
z
" style="fill:#4daf4a;"/>
   </g>
   <g id="patch_66">
    <path clip-path="url(#p7ff5b81e1d)" d="
M444.536 243.528
L447.818 243.528
L447.818 232.368
L444.536 232.368
z
" style="fill:#40cf40;"/>
   </g>
   <g id="patch_67">
    <path clip-path="url(#p7ff5b81e1d)" d="
M447.821 245.016
L449.333 245.016
L449.333 233.856
L447.821 233.856
z
" style="fill:#4daf4a;"/>
   </g>
   <g id="patch_68">
    <path clip-path="url(#p7ff5b81e1d)" d="
M449.336 243.528
L458.934 243.528
L458.934 232.368
L449.336 232.368
z
" style="fill:#40cf40;"/>
   </g>
   <g id="patch_69">
    <path clip-path="url(#p7ff5b81e1d)" d="
M458.937 245.016
L460.428 245.016
L460.428 233.856
L458.937 233.856
z
" style="fill:#4daf4a;"/>
   </g>
   <g id="patch_70">
    <path clip-path="url(#p7ff5b81e1d)" d="
M460.43 243.528
L463.424 243.528
L463.424 232.368
L460.43 232.368
z
" style="fill:#40cf40;"/>
   </g>
   <g id="patch_71">
    <path clip-path="url(#p7ff5b81e1d)" d="
M463.43 245.016
L468.12 245.016
L468.12 233.856
L463.43 233.856
z
" style="fill:#4daf4a;"/>
   </g>
   <g id="patch_72">
    <path clip-path="url(#p7ff5b81e1d)" d="
M468.123 243.528
L471.436 243.528
L471.436 232.368
L468.123 232.368
z
" style="fill:#40cf40;"/>
   </g>
   <g id="patch_73">
    <path clip-path="url(#p7ff5b81e1d)" d="
M471.439 245.016
L474.123 245.016
L474.123 233.856
L471.439 233.856
z
" style="fill:#4daf4a;"/>
   </g>
   <g id="patch_74">
    <path clip-path="url(#p7ff5b81e1d)" d="
M179.237 271.056
L183.264 271.056
L183.264 259.896
L179.237 259.896
z
" style="fill:#4daf4a;"/>
   </g>
   <g id="patch_75">
    <path clip-path="url(#p7ff5b81e1d)" d="
M183.267 269.568
L188.57 269.568
L188.57 258.408
L183.267 258.408
z
" style="fill:#40cf40;"/>
   </g>
   <g id="patch_76">
    <path clip-path="url(#p7ff5b81e1d)" d="
M188.993 271.056
L192.448 271.056
L192.448 259.896
L188.993 259.896
z
" style="fill:#4daf4a;"/>
   </g>
   <g id="patch_77">
    <path clip-path="url(#p7ff5b81e1d)" d="
M194.855 269.568
L199.56 269.568
L199.56 258.408
L194.855 258.408
z
" style="fill:#40cf40;"/>
   </g>
   <g id="patch_78">
    <path clip-path="url(#p7ff5b81e1d)" d="
M199.563 271.056
L205.179 271.056
L205.179 259.896
L199.563 259.896
z
" style="fill:#4daf4a;"/>
   </g>
   <g id="patch_79">
    <path clip-path="url(#p7ff5b81e1d)" d="
M205.182 269.568
L208.274 269.568
L208.274 258.408
L205.182 258.408
z
" style="fill:#40cf40;"/>
   </g>
   <g id="patch_80">
    <path clip-path="url(#p7ff5b81e1d)" d="
M208.277 271.056
L209.72 271.056
L209.72 259.896
L208.277 259.896
z
" style="fill:#4daf4a;"/>
   </g>
   <g id="patch_81">
    <path clip-path="url(#p7ff5b81e1d)" d="
M209.789 269.568
L211.851 269.568
L211.851 258.408
L209.789 258.408
z
" style="fill:#40cf40;"/>
   </g>
   <g id="patch_82">
    <path clip-path="url(#p7ff5b81e1d)" d="
M211.854 271.056
L213.678 271.056
L213.678 259.896
L211.854 259.896
z
" style="fill:#4daf4a;"/>
   </g>
   <g id="patch_83">
    <path clip-path="url(#p7ff5b81e1d)" d="
M213.681 269.568
L215.318 269.568
L215.318 258.408
L213.681 258.408
z
" style="fill:#40cf40;"/>
   </g>
   <g id="patch_84">
    <path clip-path="url(#p7ff5b81e1d)" d="
M215.321 271.056
L216.803 271.056
L216.803 259.896
L215.321 259.896
z
" style="fill:#4daf4a;"/>
   </g>
   <g id="patch_85">
    <path clip-path="url(#p7ff5b81e1d)" d="
M216.806 269.568
L220.955 269.568
L220.955 258.408
L216.806 258.408
z
" style="fill:#40cf40;"/>
   </g>
   <g id="patch_86">
    <path clip-path="url(#p7ff5b81e1d)" d="
M220.958 271.056
L223.794 271.056
L223.794 259.896
L220.958 259.896
z
" style="fill:#4daf4a;"/>
   </g>
   <g id="patch_87">
    <path clip-path="url(#p7ff5b81e1d)" d="
M226.309 269.568
L227.808 269.568
L227.808 258.408
L226.309 258.408
z
" style="fill:#40cf40;"/>
   </g>
   <g id="patch_88">
    <path clip-path="url(#p7ff5b81e1d)" d="
M228.764 271.056
L232.987 271.056
L232.987 259.896
L228.764 259.896
z
" style="fill:#4daf4a;"/>
   </g>
   <g id="patch_89">
    <path clip-path="url(#p7ff5b81e1d)" d="
M232.99 269.568
L237.004 269.568
L237.004 258.408
L232.99 258.408
z
" style="fill:#40cf40;"/>
   </g>
   <g id="patch_90">
    <path clip-path="url(#p7ff5b81e1d)" d="
M239.147 271.056
L253.17 271.056
L253.17 259.896
L239.147 259.896
z
" style="fill:#4daf4a;"/>
   </g>
   <g id="patch_91">
    <path clip-path="url(#p7ff5b81e1d)" d="
M253.173 269.568
L254.735 269.568
L254.735 258.408
L253.173 258.408
z
" style="fill:#40cf40;"/>
   </g>
   <g id="patch_92">
    <path clip-path="url(#p7ff5b81e1d)" d="
M255.613 271.056
L261.291 271.056
L261.291 259.896
L255.613 259.896
z
" style="fill:#4daf4a;"/>
   </g>
   <g id="patch_93">
    <path clip-path="url(#p7ff5b81e1d)" d="
M261.294 269.568
L265.895 269.568
L265.895 258.408
L261.294 258.408
z
" style="fill:#40cf40;"/>
   </g>
   <g id="patch_94">
    <path clip-path="url(#p7ff5b81e1d)" d="
M268.095 271.056
L271.63 271.056
L271.63 259.896
L268.095 259.896
z
" style="fill:#4daf4a;"/>
   </g>
   <g id="patch_95">
    <path clip-path="url(#p7ff5b81e1d)" d="
M271.633 269.568
L275.282 269.568
L275.282 258.408
L271.633 258.408
z
" style="fill:#40cf40;"/>
   </g>
   <g id="patch_96">
    <path clip-path="url(#p7ff5b81e1d)" d="
M275.285 271.056
L277.692 271.056
L277.692 259.896
L275.285 259.896
z
" style="fill:#4daf4a;"/>
   </g>
   <g id="patch_97">
    <path clip-path="url(#p7ff5b81e1d)" d="
M277.695 269.568
L281.124 269.568
L281.124 258.408
L277.695 258.408
z
" style="fill:#40cf40;"/>
   </g>
   <g id="patch_98">
    <path clip-path="url(#p7ff5b81e1d)" d="
M281.126 271.056
L286.067 271.056
L286.067 259.896
L281.126 259.896
z
" style="fill:#4daf4a;"/>
   </g>
   <g id="patch_99">
    <path clip-path="url(#p7ff5b81e1d)" d="
M287.055 269.568
L289.093 269.568
L289.093 258.408
L287.055 258.408
z
" style="fill:#40cf40;"/>
   </g>
   <g id="patch_100">
    <path clip-path="url(#p7ff5b81e1d)" d="
M289.096 271.056
L293.019 271.056
L293.019 259.896
L289.096 259.896
z
" style="fill:#4daf4a;"/>
   </g>
   <g id="patch_101">
    <path clip-path="url(#p7ff5b81e1d)" d="
M294.831 269.568
L298.581 269.568
L298.581 258.408
L294.831 258.408
z
" style="fill:#40cf40;"/>
   </g>
   <g id="patch_102">
    <path clip-path="url(#p7ff5b81e1d)" d="
M298.584 271.056
L309.095 271.056
L309.095 259.896
L298.584 259.896
z
" style="fill:#4daf4a;"/>
   </g>
   <g id="patch_103">
    <path clip-path="url(#p7ff5b81e1d)" d="
M311.053 269.568
L314.169 269.568
L314.169 258.408
L311.053 258.408
z
" style="fill:#40cf40;"/>
   </g>
   <g id="patch_104">
    <path clip-path="url(#p7ff5b81e1d)" d="
M314.172 271.056
L316.431 271.056
L316.431 259.896
L314.172 259.896
z
" style="fill:#4daf4a;"/>
   </g>
   <g id="patch_105">
    <path clip-path="url(#p7ff5b81e1d)" d="
M317.163 269.568
L319.597 269.568
L319.597 258.408
L317.163 258.408
z
" style="fill:#40cf40;"/>
   </g>
   <g id="patch_106">
    <path clip-path="url(#p7ff5b81e1d)" d="
M319.74 271.056
L325.636 271.056
L325.636 259.896
L319.74 259.896
z
" style="fill:#4daf4a;"/>
   </g>
   <g id="patch_107">
    <path clip-path="url(#p7ff5b81e1d)" d="
M326.665 269.568
L332.48 269.568
L332.48 258.408
L326.665 258.408
z
" style="fill:#40cf40;"/>
   </g>
   <g id="patch_108">
    <path clip-path="url(#p7ff5b81e1d)" d="
M332.483 271.056
L334.269 271.056
L334.269 259.896
L332.483 259.896
z
" style="fill:#4daf4a;"/>
   </g>
   <g id="patch_109">
    <path clip-path="url(#p7ff5b81e1d)" d="
M334.736 269.568
L339.459 269.568
L339.459 258.408
L334.736 258.408
z
" style="fill:#40cf40;"/>
   </g>
   <g id="patch_110">
    <path clip-path="url(#p7ff5b81e1d)" d="
M339.462 271.056
L343.161 271.056
L343.161 259.896
L339.462 259.896
z
" style="fill:#4daf4a;"/>
   </g>
   <g id="patch_111">
    <path clip-path="url(#p7ff5b81e1d)" d="
M343.164 269.568
L345.801 269.568
L345.801 258.408
L343.164 258.408
z
" style="fill:#40cf40;"/>
   </g>
   <g id="patch_112">
    <path clip-path="url(#p7ff5b81e1d)" d="
M345.804 271.056
L349.134 271.056
L349.134 259.896
L345.804 259.896
z
" style="fill:#4daf4a;"/>
   </g>
   <g id="patch_113">
    <path clip-path="url(#p7ff5b81e1d)" d="
M349.137 269.568
L353.833 269.568
L353.833 258.408
L349.137 258.408
z
" style="fill:#40cf40;"/>
   </g>
   <g id="patch_114">
    <path clip-path="url(#p7ff5b81e1d)" d="
M353.872 271.056
L356.806 271.056
L356.806 259.896
L353.872 259.896
z
" style="fill:#4daf4a;"/>
   </g>
   <g id="patch_115">
    <path clip-path="url(#p7ff5b81e1d)" d="
M357.02 269.568
L358.601 269.568
L358.601 258.408
L357.02 258.408
z
" style="fill:#40cf40;"/>
   </g>
   <g id="patch_116">
    <path clip-path="url(#p7ff5b81e1d)" d="
M359.416 271.056
L361.101 271.056
L361.101 259.896
L359.416 259.896
z
" style="fill:#4daf4a;"/>
   </g>
   <g id="patch_117">
    <path clip-path="url(#p7ff5b81e1d)" d="
M362.321 269.568
L364.437 269.568
L364.437 258.408
L362.321 258.408
z
" style="fill:#40cf40;"/>
   </g>
   <g id="patch_118">
    <path clip-path="url(#p7ff5b81e1d)" d="
M365.675 271.056
L370.573 271.056
L370.573 259.896
L365.675 259.896
z
" style="fill:#4daf4a;"/>
   </g>
   <g id="patch_119">
    <path clip-path="url(#p7ff5b81e1d)" d="
M370.576 269.568
L373.38 269.568
L373.38 258.408
L370.576 258.408
z
" style="fill:#40cf40;"/>
   </g>
   <g id="patch_120">
    <path clip-path="url(#p7ff5b81e1d)" d="
M373.635 271.056
L376.186 271.056
L376.186 259.896
L373.635 259.896
z
" style="fill:#4daf4a;"/>
   </g>
   <g id="patch_121">
    <path clip-path="url(#p7ff5b81e1d)" d="
M376.808 269.568
L382.73 269.568
L382.73 258.408
L376.808 258.408
z
" style="fill:#40cf40;"/>
   </g>
   <g id="patch_122">
    <path clip-path="url(#p7ff5b81e1d)" d="
M382.733 271.056
L385.757 271.056
L385.757 259.896
L382.733 259.896
z
" style="fill:#4daf4a;"/>
   </g>
   <g id="patch_123">
    <path clip-path="url(#p7ff5b81e1d)" d="
M385.76 269.568
L387.682 269.568
L387.682 258.408
L385.76 258.408
z
" style="fill:#40cf40;"/>
   </g>
   <g id="patch_124">
    <path clip-path="url(#p7ff5b81e1d)" d="
M388.614 271.056
L391.524 271.056
L391.524 259.896
L388.614 259.896
z
" style="fill:#4daf4a;"/>
   </g>
   <g id="patch_125">
    <path clip-path="url(#p7ff5b81e1d)" d="
M393.851 269.568
L395.426 269.568
L395.426 258.408
L393.851 258.408
z
" style="fill:#40cf40;"/>
   </g>
   <g id="patch_126">
    <path clip-path="url(#p7ff5b81e1d)" d="
M397.045 271.056
L401.363 271.056
L401.363 259.896
L397.045 259.896
z
" style="fill:#4daf4a;"/>
   </g>
   <g id="patch_127">
    <path clip-path="url(#p7ff5b81e1d)" d="
M401.652 269.568
L403.333 269.568
L403.333 258.408
L401.652 258.408
z
" style="fill:#40cf40;"/>
   </g>
   <g id="patch_128">
    <path clip-path="url(#p7ff5b81e1d)" d="
M408.842 271.056
L411.282 271.056
L411.282 259.896
L408.842 259.896
z
" style="fill:#4daf4a;"/>
   </g>
   <g id="patch_129">
    <path clip-path="url(#p7ff5b81e1d)" d="
M412.913 269.568
L414.66 269.568
L414.66 258.408
L412.913 258.408
z
" style="fill:#40cf40;"/>
   </g>
   <g id="patch_130">
    <path clip-path="url(#p7ff5b81e1d)" d="
M414.663 271.056
L419.15 271.056
L419.15 259.896
L414.663 259.896
z
" style="fill:#4daf4a;"/>
   </g>
   <g id="patch_131">
    <path clip-path="url(#p7ff5b81e1d)" d="
M421.662 269.568
L424.296 269.568
L424.296 258.408
L421.662 258.408
z
" style="fill:#40cf40;"/>
   </g>
   <g id="patch_132">
    <path clip-path="url(#p7ff5b81e1d)" d="
M424.665 271.056
L426.87 271.056
L426.87 259.896
L424.665 259.896
z
" style="fill:#4daf4a;"/>
   </g>
   <g id="patch_133">
    <path clip-path="url(#p7ff5b81e1d)" d="
M427.65 269.568
L431.001 269.568
L431.001 258.408
L427.65 258.408
z
" style="fill:#40cf40;"/>
   </g>
   <g id="patch_134">
    <path clip-path="url(#p7ff5b81e1d)" d="
M431.572 271.056
L437.185 271.056
L437.185 259.896
L431.572 259.896
z
" style="fill:#4daf4a;"/>
   </g>
   <g id="patch_135">
    <path clip-path="url(#p7ff5b81e1d)" d="
M437.188 269.568
L440.348 269.568
L440.348 258.408
L437.188 258.408
z
" style="fill:#40cf40;"/>
   </g>
   <g id="patch_136">
    <path clip-path="url(#p7ff5b81e1d)" d="
M442 271.056
L444.533 271.056
L444.533 259.896
L442 259.896
z
" style="fill:#4daf4a;"/>
   </g>
   <g id="patch_137">
    <path clip-path="url(#p7ff5b81e1d)" d="
M444.536 269.568
L447.818 269.568
L447.818 258.408
L444.536 258.408
z
" style="fill:#40cf40;"/>
   </g>
   <g id="patch_138">
    <path clip-path="url(#p7ff5b81e1d)" d="
M447.821 271.056
L449.333 271.056
L449.333 259.896
L447.821 259.896
z
" style="fill:#4daf4a;"/>
   </g>
   <g id="patch_139">
    <path clip-path="url(#p7ff5b81e1d)" d="
M449.336 269.568
L458.934 269.568
L458.934 258.408
L449.336 258.408
z
" style="fill:#40cf40;"/>
   </g>
   <g id="patch_140">
    <path clip-path="url(#p7ff5b81e1d)" d="
M458.937 271.056
L460.428 271.056
L460.428 259.896
L458.937 259.896
z
" style="fill:#4daf4a;"/>
   </g>
   <g id="patch_141">
    <path clip-path="url(#p7ff5b81e1d)" d="
M460.43 269.568
L463.424 269.568
L463.424 258.408
L460.43 258.408
z
" style="fill:#40cf40;"/>
   </g>
   <g id="patch_142">
    <path clip-path="url(#p7ff5b81e1d)" d="
M463.43 271.056
L468.12 271.056
L468.12 259.896
L463.43 259.896
z
" style="fill:#4daf4a;"/>
   </g>
   <g id="patch_143">
    <path clip-path="url(#p7ff5b81e1d)" d="
M468.123 269.568
L471.436 269.568
L471.436 258.408
L468.123 258.408
z
" style="fill:#40cf40;"/>
   </g>
   <g id="patch_144">
    <path clip-path="url(#p7ff5b81e1d)" d="
M471.439 271.056
L474.123 271.056
L474.123 259.896
L471.439 259.896
z
" style="fill:#4daf4a;"/>
   </g>
   <g id="line2d_1">
    <path clip-path="url(#p7ff5b81e1d)" d="
M178.02 206.7
L475.62 206.7" style="fill:none;stroke:#000000;stroke-linecap:square;stroke-width:0.5;"/>
   </g>
   <g id="line2d_2">
    <path clip-path="url(#p7ff5b81e1d)" d="
M178.02 158.34
L178.02 273.66" style="fill:none;stroke:#808080;stroke-dasharray:1.000000,3.000000;stroke-dashoffset:0.0;stroke-width:0.2;"/>
   </g>
   <g id="line2d_3">
    <path clip-path="url(#p7ff5b81e1d)" d="
M178.02 206.7
L178.02 208.932" style="fill:none;stroke:#000000;stroke-linecap:square;stroke-width:0.5;"/>
   </g>
   <g id="line2d_4">
    <path clip-path="url(#p7ff5b81e1d)" d="
M207.78 158.34
L207.78 273.66" style="fill:none;stroke:#808080;stroke-dasharray:1.000000,3.000000;stroke-dashoffset:0.0;stroke-width:0.2;"/>
   </g>
   <g id="line2d_5">
    <path clip-path="url(#p7ff5b81e1d)" d="
M207.78 206.7
L207.78 208.932" style="fill:none;stroke:#000000;stroke-linecap:square;stroke-width:0.5;"/>
   </g>
   <g id="line2d_6">
    <path clip-path="url(#p7ff5b81e1d)" d="
M237.54 158.34
L237.54 273.66" style="fill:none;stroke:#808080;stroke-dasharray:1.000000,3.000000;stroke-dashoffset:0.0;stroke-width:0.2;"/>
   </g>
   <g id="line2d_7">
    <path clip-path="url(#p7ff5b81e1d)" d="
M237.54 206.7
L237.54 208.932" style="fill:none;stroke:#000000;stroke-linecap:square;stroke-width:0.5;"/>
   </g>
   <g id="line2d_8">
    <path clip-path="url(#p7ff5b81e1d)" d="
M267.3 158.34
L267.3 273.66" style="fill:none;stroke:#808080;stroke-dasharray:1.000000,3.000000;stroke-dashoffset:0.0;stroke-width:0.2;"/>
   </g>
   <g id="line2d_9">
    <path clip-path="url(#p7ff5b81e1d)" d="
M267.3 206.7
L267.3 208.932" style="fill:none;stroke:#000000;stroke-linecap:square;stroke-width:0.5;"/>
   </g>
   <g id="line2d_10">
    <path clip-path="url(#p7ff5b81e1d)" d="
M297.06 158.34
L297.06 273.66" style="fill:none;stroke:#808080;stroke-dasharray:1.000000,3.000000;stroke-dashoffset:0.0;stroke-width:0.2;"/>
   </g>
   <g id="line2d_11">
    <path clip-path="url(#p7ff5b81e1d)" d="
M297.06 206.7
L297.06 208.932" style="fill:none;stroke:#000000;stroke-linecap:square;stroke-width:0.5;"/>
   </g>
   <g id="line2d_12">
    <path clip-path="url(#p7ff5b81e1d)" d="
M326.82 158.34
L326.82 273.66" style="fill:none;stroke:#808080;stroke-dasharray:1.000000,3.000000;stroke-dashoffset:0.0;stroke-width:0.2;"/>
   </g>
   <g id="line2d_13">
    <path clip-path="url(#p7ff5b81e1d)" d="
M326.82 206.7
L326.82 208.932" style="fill:none;stroke:#000000;stroke-linecap:square;stroke-width:0.5;"/>
   </g>
   <g id="line2d_14">
    <path clip-path="url(#p7ff5b81e1d)" d="
M356.58 158.34
L356.58 273.66" style="fill:none;stroke:#808080;stroke-dasharray:1.000000,3.000000;stroke-dashoffset:0.0;stroke-width:0.2;"/>
   </g>
   <g id="line2d_15">
    <path clip-path="url(#p7ff5b81e1d)" d="
M356.58 206.7
L356.58 208.932" style="fill:none;stroke:#000000;stroke-linecap:square;stroke-width:0.5;"/>
   </g>
   <g id="line2d_16">
    <path clip-path="url(#p7ff5b81e1d)" d="
M386.34 158.34
L386.34 273.66" style="fill:none;stroke:#808080;stroke-dasharray:1.000000,3.000000;stroke-dashoffset:0.0;stroke-width:0.2;"/>
   </g>
   <g id="line2d_17">
    <path clip-path="url(#p7ff5b81e1d)" d="
M386.34 206.7
L386.34 208.932" style="fill:none;stroke:#000000;stroke-linecap:square;stroke-width:0.5;"/>
   </g>
   <g id="line2d_18">
    <path clip-path="url(#p7ff5b81e1d)" d="
M416.1 158.34
L416.1 273.66" style="fill:none;stroke:#808080;stroke-dasharray:1.000000,3.000000;stroke-dashoffset:0.0;stroke-width:0.2;"/>
   </g>
   <g id="line2d_19">
    <path clip-path="url(#p7ff5b81e1d)" d="
M416.1 206.7
L416.1 208.932" style="fill:none;stroke:#000000;stroke-linecap:square;stroke-width:0.5;"/>
   </g>
   <g id="line2d_20">
    <path clip-path="url(#p7ff5b81e1d)" d="
M445.86 158.34
L445.86 273.66" style="fill:none;stroke:#808080;stroke-dasharray:1.000000,3.000000;stroke-dashoffset:0.0;stroke-width:0.2;"/>
   </g>
   <g id="line2d_21">
    <path clip-path="url(#p7ff5b81e1d)" d="
M445.86 206.7
L445.86 208.932" style="fill:none;stroke:#000000;stroke-linecap:square;stroke-width:0.5;"/>
   </g>
   <g id="line2d_22">
    <path clip-path="url(#p7ff5b81e1d)" d="
M475.62 158.34
L475.62 273.66" style="fill:none;stroke:#808080;stroke-dasharray:1.000000,3.000000;stroke-dashoffset:0.0;stroke-width:0.2;"/>
   </g>
   <g id="line2d_23">
    <path clip-path="url(#p7ff5b81e1d)" d="
M475.62 206.7
L475.62 208.932" style="fill:none;stroke:#000000;stroke-linecap:square;stroke-width:0.5;"/>
   </g>
   <g id="text_1">
    <!-- 0.0 -->
    <defs>
     <path d="
M31.7812 66.4062
Q24.1719 66.4062 20.3281 58.9062
Q16.5 51.4219 16.5 36.375
Q16.5 21.3906 20.3281 13.8906
Q24.1719 6.39062 31.7812 6.39062
Q39.4531 6.39062 43.2812 13.8906
Q47.125 21.3906 47.125 36.375
Q47.125 51.4219 43.2812 58.9062
Q39.4531 66.4062 31.7812 66.4062
M31.7812 74.2188
Q44.0469 74.2188 50.5156 64.5156
Q56.9844 54.8281 56.9844 36.375
Q56.9844 17.9688 50.5156 8.26562
Q44.0469 -1.42188 31.7812 -1.42188
Q19.5312 -1.42188 13.0625 8.26562
Q6.59375 17.9688 6.59375 36.375
Q6.59375 54.8281 13.0625 64.5156
Q19.5312 74.2188 31.7812 74.2188" id="DejaVuSans-30"/>
     <path d="
M10.6875 12.4062
L21 12.4062
L21 0
L10.6875 0
z
" id="DejaVuSans-2e"/>
    </defs>
    <g transform="translate(180.252 215.01075)scale(0.08 -0.08)">
     <use xlink:href="#DejaVuSans-30"/>
     <use x="63.623046875" xlink:href="#DejaVuSans-2e"/>
     <use x="95.41015625" xlink:href="#DejaVuSans-30"/>
    </g>
   </g>
   <g id="text_2">
    <!-- 1.0 -->
    <defs>
     <path d="
M12.4062 8.29688
L28.5156 8.29688
L28.5156 63.9219
L10.9844 60.4062
L10.9844 69.3906
L28.4219 72.9062
L38.2812 72.9062
L38.2812 8.29688
L54.3906 8.29688
L54.3906 0
L12.4062 0
z
" id="DejaVuSans-31"/>
    </defs>
    <g transform="translate(210.012 215.01075)scale(0.08 -0.08)">
     <use xlink:href="#DejaVuSans-31"/>
     <use x="63.623046875" xlink:href="#DejaVuSans-2e"/>
     <use x="95.41015625" xlink:href="#DejaVuSans-30"/>
    </g>
   </g>
   <g id="text_3">
    <!-- 2.0 -->
    <defs>
     <path d="
M19.1875 8.29688
L53.6094 8.29688
L53.6094 0
L7.32812 0
L7.32812 8.29688
Q12.9375 14.1094 22.625 23.8906
Q32.3281 33.6875 34.8125 36.5312
Q39.5469 41.8438 41.4219 45.5312
Q43.3125 49.2188 43.3125 52.7812
Q43.3125 58.5938 39.2344 62.25
Q35.1562 65.9219 28.6094 65.9219
Q23.9688 65.9219 18.8125 64.3125
Q13.6719 62.7031 7.8125 59.4219
L7.8125 69.3906
Q13.7656 71.7812 18.9375 73
Q24.125 74.2188 28.4219 74.2188
Q39.75 74.2188 46.4844 68.5469
Q53.2188 62.8906 53.2188 53.4219
Q53.2188 48.9219 51.5312 44.8906
Q49.8594 40.875 45.4062 35.4062
Q44.1875 33.9844 37.6406 27.2188
Q31.1094 20.4531 19.1875 8.29688" id="DejaVuSans-32"/>
    </defs>
    <g transform="translate(239.772 215.01075)scale(0.08 -0.08)">
     <use xlink:href="#DejaVuSans-32"/>
     <use x="63.623046875" xlink:href="#DejaVuSans-2e"/>
     <use x="95.41015625" xlink:href="#DejaVuSans-30"/>
    </g>
   </g>
   <g id="text_4">
    <!-- 3.0 -->
    <defs>
     <path d="
M40.5781 39.3125
Q47.6562 37.7969 51.625 33
Q55.6094 28.2188 55.6094 21.1875
Q55.6094 10.4062 48.1875 4.48438
Q40.7656 -1.42188 27.0938 -1.42188
Q22.5156 -1.42188 17.6562 -0.515625
Q12.7969 0.390625 7.625 2.20312
L7.625 11.7188
Q11.7188 9.32812 16.5938 8.10938
Q21.4844 6.89062 26.8125 6.89062
Q36.0781 6.89062 40.9375 10.5469
Q45.7969 14.2031 45.7969 21.1875
Q45.7969 27.6406 41.2812 31.2656
Q36.7656 34.9062 28.7188 34.9062
L20.2188 34.9062
L20.2188 43.0156
L29.1094 43.0156
Q36.375 43.0156 40.2344 45.9219
Q44.0938 48.8281 44.0938 54.2969
Q44.0938 59.9062 40.1094 62.9062
Q36.1406 65.9219 28.7188 65.9219
Q24.6562 65.9219 20.0156 65.0312
Q15.375 64.1562 9.8125 62.3125
L9.8125 71.0938
Q15.4375 72.6562 20.3438 73.4375
Q25.25 74.2188 29.5938 74.2188
Q40.8281 74.2188 47.3594 69.1094
Q53.9062 64.0156 53.9062 55.3281
Q53.9062 49.2656 50.4375 45.0938
Q46.9688 40.9219 40.5781 39.3125" id="DejaVuSans-33"/>
    </defs>
    <g transform="translate(269.532 215.01075)scale(0.08 -0.08)">
     <use xlink:href="#DejaVuSans-33"/>
     <use x="63.623046875" xlink:href="#DejaVuSans-2e"/>
     <use x="95.41015625" xlink:href="#DejaVuSans-30"/>
    </g>
   </g>
   <g id="text_5">
    <!-- 4.0 -->
    <defs>
     <path d="
M37.7969 64.3125
L12.8906 25.3906
L37.7969 25.3906
z

M35.2031 72.9062
L47.6094 72.9062
L47.6094 25.3906
L58.0156 25.3906
L58.0156 17.1875
L47.6094 17.1875
L47.6094 0
L37.7969 0
L37.7969 17.1875
L4.89062 17.1875
L4.89062 26.7031
z
" id="DejaVuSans-34"/>
    </defs>
    <g transform="translate(299.292 215.01075)scale(0.08 -0.08)">
     <use xlink:href="#DejaVuSans-34"/>
     <use x="63.623046875" xlink:href="#DejaVuSans-2e"/>
     <use x="95.41015625" xlink:href="#DejaVuSans-30"/>
    </g>
   </g>
   <g id="text_6">
    <!-- 5.0 -->
    <defs>
     <path d="
M10.7969 72.9062
L49.5156 72.9062
L49.5156 64.5938
L19.8281 64.5938
L19.8281 46.7344
Q21.9688 47.4688 24.1094 47.8281
Q26.2656 48.1875 28.4219 48.1875
Q40.625 48.1875 47.75 41.5
Q54.8906 34.8125 54.8906 23.3906
Q54.8906 11.625 47.5625 5.09375
Q40.2344 -1.42188 26.9062 -1.42188
Q22.3125 -1.42188 17.5469 -0.640625
Q12.7969 0.140625 7.71875 1.70312
L7.71875 11.625
Q12.1094 9.23438 16.7969 8.0625
Q21.4844 6.89062 26.7031 6.89062
Q35.1562 6.89062 40.0781 11.3281
Q45.0156 15.7656 45.0156 23.3906
Q45.0156 31 40.0781 35.4375
Q35.1562 39.8906 26.7031 39.8906
Q22.75 39.8906 18.8125 39.0156
Q14.8906 38.1406 10.7969 36.2812
z
" id="DejaVuSans-35"/>
    </defs>
    <g transform="translate(329.052 215.01075)scale(0.08 -0.08)">
     <use xlink:href="#DejaVuSans-35"/>
     <use x="63.623046875" xlink:href="#DejaVuSans-2e"/>
     <use x="95.41015625" xlink:href="#DejaVuSans-30"/>
    </g>
   </g>
   <g id="text_7">
    <!-- 6.0 -->
    <defs>
     <path d="
M33.0156 40.375
Q26.375 40.375 22.4844 35.8281
Q18.6094 31.2969 18.6094 23.3906
Q18.6094 15.5312 22.4844 10.9531
Q26.375 6.39062 33.0156 6.39062
Q39.6562 6.39062 43.5312 10.9531
Q47.4062 15.5312 47.4062 23.3906
Q47.4062 31.2969 43.5312 35.8281
Q39.6562 40.375 33.0156 40.375
M52.5938 71.2969
L52.5938 62.3125
Q48.875 64.0625 45.0938 64.9844
Q41.3125 65.9219 37.5938 65.9219
Q27.8281 65.9219 22.6719 59.3281
Q17.5312 52.7344 16.7969 39.4062
Q19.6719 43.6562 24.0156 45.9219
Q28.375 48.1875 33.5938 48.1875
Q44.5781 48.1875 50.9531 41.5156
Q57.3281 34.8594 57.3281 23.3906
Q57.3281 12.1562 50.6875 5.35938
Q44.0469 -1.42188 33.0156 -1.42188
Q20.3594 -1.42188 13.6719 8.26562
Q6.98438 17.9688 6.98438 36.375
Q6.98438 53.6562 15.1875 63.9375
Q23.3906 74.2188 37.2031 74.2188
Q40.9219 74.2188 44.7031 73.4844
Q48.4844 72.75 52.5938 71.2969" id="DejaVuSans-36"/>
    </defs>
    <g transform="translate(358.812 215.01075)scale(0.08 -0.08)">
     <use xlink:href="#DejaVuSans-36"/>
     <use x="63.623046875" xlink:href="#DejaVuSans-2e"/>
     <use x="95.41015625" xlink:href="#DejaVuSans-30"/>
    </g>
   </g>
   <g id="text_8">
    <!-- 7.0 -->
    <defs>
     <path d="
M8.20312 72.9062
L55.0781 72.9062
L55.0781 68.7031
L28.6094 0
L18.3125 0
L43.2188 64.5938
L8.20312 64.5938
z
" id="DejaVuSans-37"/>
    </defs>
    <g transform="translate(388.572 215.01075)scale(0.08 -0.08)">
     <use xlink:href="#DejaVuSans-37"/>
     <use x="63.623046875" xlink:href="#DejaVuSans-2e"/>
     <use x="95.41015625" xlink:href="#DejaVuSans-30"/>
    </g>
   </g>
   <g id="text_9">
    <!-- 8.0 -->
    <defs>
     <path d="
M31.7812 34.625
Q24.75 34.625 20.7188 30.8594
Q16.7031 27.0938 16.7031 20.5156
Q16.7031 13.9219 20.7188 10.1562
Q24.75 6.39062 31.7812 6.39062
Q38.8125 6.39062 42.8594 10.1719
Q46.9219 13.9688 46.9219 20.5156
Q46.9219 27.0938 42.8906 30.8594
Q38.875 34.625 31.7812 34.625
M21.9219 38.8125
Q15.5781 40.375 12.0312 44.7188
Q8.5 49.0781 8.5 55.3281
Q8.5 64.0625 14.7188 69.1406
Q20.9531 74.2188 31.7812 74.2188
Q42.6719 74.2188 48.875 69.1406
Q55.0781 64.0625 55.0781 55.3281
Q55.0781 49.0781 51.5312 44.7188
Q48 40.375 41.7031 38.8125
Q48.8281 37.1562 52.7969 32.3125
Q56.7812 27.4844 56.7812 20.5156
Q56.7812 9.90625 50.3125 4.23438
Q43.8438 -1.42188 31.7812 -1.42188
Q19.7344 -1.42188 13.25 4.23438
Q6.78125 9.90625 6.78125 20.5156
Q6.78125 27.4844 10.7812 32.3125
Q14.7969 37.1562 21.9219 38.8125
M18.3125 54.3906
Q18.3125 48.7344 21.8438 45.5625
Q25.3906 42.3906 31.7812 42.3906
Q38.1406 42.3906 41.7188 45.5625
Q45.3125 48.7344 45.3125 54.3906
Q45.3125 60.0625 41.7188 63.2344
Q38.1406 66.4062 31.7812 66.4062
Q25.3906 66.4062 21.8438 63.2344
Q18.3125 60.0625 18.3125 54.3906" id="DejaVuSans-38"/>
    </defs>
    <g transform="translate(418.332 215.01075)scale(0.08 -0.08)">
     <use xlink:href="#DejaVuSans-38"/>
     <use x="63.623046875" xlink:href="#DejaVuSans-2e"/>
     <use x="95.41015625" xlink:href="#DejaVuSans-30"/>
    </g>
   </g>
   <g id="text_10">
    <!-- 9.0 -->
    <defs>
     <path d="
M10.9844 1.51562
L10.9844 10.5
Q14.7031 8.73438 18.5 7.8125
Q22.3125 6.89062 25.9844 6.89062
Q35.75 6.89062 40.8906 13.4531
Q46.0469 20.0156 46.7812 33.4062
Q43.9531 29.2031 39.5938 26.9531
Q35.25 24.7031 29.9844 24.7031
Q19.0469 24.7031 12.6719 31.3125
Q6.29688 37.9375 6.29688 49.4219
Q6.29688 60.6406 12.9375 67.4219
Q19.5781 74.2188 30.6094 74.2188
Q43.2656 74.2188 49.9219 64.5156
Q56.5938 54.8281 56.5938 36.375
Q56.5938 19.1406 48.4062 8.85938
Q40.2344 -1.42188 26.4219 -1.42188
Q22.7031 -1.42188 18.8906 -0.6875
Q15.0938 0.046875 10.9844 1.51562
M30.6094 32.4219
Q37.25 32.4219 41.125 36.9531
Q45.0156 41.5 45.0156 49.4219
Q45.0156 57.2812 41.125 61.8438
Q37.25 66.4062 30.6094 66.4062
Q23.9688 66.4062 20.0938 61.8438
Q16.2188 57.2812 16.2188 49.4219
Q16.2188 41.5 20.0938 36.9531
Q23.9688 32.4219 30.6094 32.4219" id="DejaVuSans-39"/>
    </defs>
    <g transform="translate(448.092 215.01075)scale(0.08 -0.08)">
     <use xlink:href="#DejaVuSans-39"/>
     <use x="63.623046875" xlink:href="#DejaVuSans-2e"/>
     <use x="95.41015625" xlink:href="#DejaVuSans-30"/>
    </g>
   </g>
   <g id="text_11">
    <!-- 10.0 -->
    <g transform="translate(477.852 215.01075)scale(0.08 -0.08)">
     <use xlink:href="#DejaVuSans-31"/>
     <use x="63.623046875" xlink:href="#DejaVuSans-30"/>
     <use x="127.24609375" xlink:href="#DejaVuSans-2e"/>
     <use x="159.033203125" xlink:href="#DejaVuSans-30"/>
    </g>
   </g>
   <g id="text_12">
    <!-- Genome, x10 kb -->
    <defs>
     <path d="
M11.7188 12.4062
L22.0156 12.4062
L22.0156 4
L14.0156 -11.625
L7.71875 -11.625
L11.7188 4
z
" id="DejaVuSans-2c"/>
     <path d="
M30.6094 48.3906
Q23.3906 48.3906 19.1875 42.75
Q14.9844 37.1094 14.9844 27.2969
Q14.9844 17.4844 19.1562 11.8438
Q23.3438 6.20312 30.6094 6.20312
Q37.7969 6.20312 41.9844 11.8594
Q46.1875 17.5312 46.1875 27.2969
Q46.1875 37.0156 41.9844 42.7031
Q37.7969 48.3906 30.6094 48.3906
M30.6094 56
Q42.3281 56 49.0156 48.375
Q55.7188 40.7656 55.7188 27.2969
Q55.7188 13.875 49.0156 6.21875
Q42.3281 -1.42188 30.6094 -1.42188
Q18.8438 -1.42188 12.1719 6.21875
Q5.51562 13.875 5.51562 27.2969
Q5.51562 40.7656 12.1719 48.375
Q18.8438 56 30.6094 56" id="DejaVuSans-6f"/>
     <path d="
M52 44.1875
Q55.375 50.25 60.0625 53.125
Q64.75 56 71.0938 56
Q79.6406 56 84.2812 50.0156
Q88.9219 44.0469 88.9219 33.0156
L88.9219 0
L79.8906 0
L79.8906 32.7188
Q79.8906 40.5781 77.0938 44.375
Q74.3125 48.1875 68.6094 48.1875
Q61.625 48.1875 57.5625 43.5469
Q53.5156 38.9219 53.5156 30.9062
L53.5156 0
L44.4844 0
L44.4844 32.7188
Q44.4844 40.625 41.7031 44.4062
Q38.9219 48.1875 33.1094 48.1875
Q26.2188 48.1875 22.1562 43.5312
Q18.1094 38.875 18.1094 30.9062
L18.1094 0
L9.07812 0
L9.07812 54.6875
L18.1094 54.6875
L18.1094 46.1875
Q21.1875 51.2188 25.4844 53.6094
Q29.7812 56 35.6875 56
Q41.6562 56 45.8281 52.9688
Q50 49.9531 52 44.1875" id="DejaVuSans-6d"/>
     <path d="
M54.8906 33.0156
L54.8906 0
L45.9062 0
L45.9062 32.7188
Q45.9062 40.4844 42.875 44.3281
Q39.8438 48.1875 33.7969 48.1875
Q26.5156 48.1875 22.3125 43.5469
Q18.1094 38.9219 18.1094 30.9062
L18.1094 0
L9.07812 0
L9.07812 54.6875
L18.1094 54.6875
L18.1094 46.1875
Q21.3438 51.125 25.7031 53.5625
Q30.0781 56 35.7969 56
Q45.2188 56 50.0469 50.1719
Q54.8906 44.3438 54.8906 33.0156" id="DejaVuSans-6e"/>
     <path d="
M9.07812 75.9844
L18.1094 75.9844
L18.1094 31.1094
L44.9219 54.6875
L56.3906 54.6875
L27.3906 29.1094
L57.625 0
L45.9062 0
L18.1094 26.7031
L18.1094 0
L9.07812 0
z
" id="DejaVuSans-6b"/>
     <path id="DejaVuSans-20"/>
     <path d="
M59.5156 10.4062
L59.5156 29.9844
L43.4062 29.9844
L43.4062 38.0938
L69.2812 38.0938
L69.2812 6.78125
Q63.5781 2.73438 56.6875 0.65625
Q49.8125 -1.42188 42 -1.42188
Q24.9062 -1.42188 15.25 8.5625
Q5.60938 18.5625 5.60938 36.375
Q5.60938 54.25 15.25 64.2344
Q24.9062 74.2188 42 74.2188
Q49.125 74.2188 55.5469 72.4531
Q61.9688 70.7031 67.3906 67.2812
L67.3906 56.7812
Q61.9219 61.4219 55.7656 63.7656
Q49.6094 66.1094 42.8281 66.1094
Q29.4375 66.1094 22.7188 58.6406
Q16.0156 51.1719 16.0156 36.375
Q16.0156 21.625 22.7188 14.1562
Q29.4375 6.6875 42.8281 6.6875
Q48.0469 6.6875 52.1406 7.59375
Q56.25 8.5 59.5156 10.4062" id="DejaVuSans-47"/>
     <path d="
M54.8906 54.6875
L35.1094 28.0781
L55.9062 0
L45.3125 0
L29.3906 21.4844
L13.4844 0
L2.875 0
L24.125 28.6094
L4.6875 54.6875
L15.2812 54.6875
L29.7812 35.2031
L44.2812 54.6875
z
" id="DejaVuSans-78"/>
     <path d="
M56.2031 29.5938
L56.2031 25.2031
L14.8906 25.2031
Q15.4844 15.9219 20.4844 11.0625
Q25.4844 6.20312 34.4219 6.20312
Q39.5938 6.20312 44.4531 7.46875
Q49.3125 8.73438 54.1094 11.2812
L54.1094 2.78125
Q49.2656 0.734375 44.1875 -0.34375
Q39.1094 -1.42188 33.8906 -1.42188
Q20.7969 -1.42188 13.1562 6.1875
Q5.51562 13.8125 5.51562 26.8125
Q5.51562 40.2344 12.7656 48.1094
Q20.0156 56 32.3281 56
Q43.3594 56 49.7812 48.8906
Q56.2031 41.7969 56.2031 29.5938
M47.2188 32.2344
Q47.125 39.5938 43.0938 43.9844
Q39.0625 48.3906 32.4219 48.3906
Q24.9062 48.3906 20.3906 44.1406
Q15.875 39.8906 15.1875 32.1719
z
" id="DejaVuSans-65"/>
     <path d="
M48.6875 27.2969
Q48.6875 37.2031 44.6094 42.8438
Q40.5312 48.4844 33.4062 48.4844
Q26.2656 48.4844 22.1875 42.8438
Q18.1094 37.2031 18.1094 27.2969
Q18.1094 17.3906 22.1875 11.75
Q26.2656 6.10938 33.4062 6.10938
Q40.5312 6.10938 44.6094 11.75
Q48.6875 17.3906 48.6875 27.2969
M18.1094 46.3906
Q20.9531 51.2656 25.2656 53.625
Q29.5938 56 35.5938 56
Q45.5625 56 51.7812 48.0938
Q58.0156 40.1875 58.0156 27.2969
Q58.0156 14.4062 51.7812 6.48438
Q45.5625 -1.42188 35.5938 -1.42188
Q29.5938 -1.42188 25.2656 0.953125
Q20.9531 3.32812 18.1094 8.20312
L18.1094 0
L9.07812 0
L9.07812 75.9844
L18.1094 75.9844
z
" id="DejaVuSans-62"/>
    </defs>
    <g transform="translate(281.70796875 226.59028125)scale(0.11 -0.11)">
     <use xlink:href="#DejaVuSans-47"/>
     <use x="77.490234375" xlink:href="#DejaVuSans-65"/>
     <use x="139.013671875" xlink:href="#DejaVuSans-6e"/>
     <use x="202.392578125" xlink:href="#DejaVuSans-6f"/>
     <use x="263.57421875" xlink:href="#DejaVuSans-6d"/>
     <use x="360.986328125" xlink:href="#DejaVuSans-65"/>
     <use x="422.509765625" xlink:href="#DejaVuSans-2c"/>
     <use x="454.296875" xlink:href="#DejaVuSans-20"/>
     <use x="486.083984375" xlink:href="#DejaVuSans-78"/>
     <use x="545.263671875" xlink:href="#DejaVuSans-31"/>
     <use x="608.88671875" xlink:href="#DejaVuSans-30"/>
     <use x="672.509765625" xlink:href="#DejaVuSans-20"/>
     <use x="704.296875" xlink:href="#DejaVuSans-6b"/>
     <use x="762.20703125" xlink:href="#DejaVuSans-62"/>
    </g>
   </g>
   <g id="text_13">
    <!-- deBruijnGraphQUAST_s_6.first100000 -->
    <defs>
     <path d="
M-0.296875 72.9062
L61.375 72.9062
L61.375 64.5938
L35.5 64.5938
L35.5 0
L25.5938 0
L25.5938 64.5938
L-0.296875 64.5938
z
" id="DejaVuSans-54"/>
     <path d="
M54.8906 33.0156
L54.8906 0
L45.9062 0
L45.9062 32.7188
Q45.9062 40.4844 42.875 44.3281
Q39.8438 48.1875 33.7969 48.1875
Q26.5156 48.1875 22.3125 43.5469
Q18.1094 38.9219 18.1094 30.9062
L18.1094 0
L9.07812 0
L9.07812 75.9844
L18.1094 75.9844
L18.1094 46.1875
Q21.3438 51.125 25.7031 53.5625
Q30.0781 56 35.7969 56
Q45.2188 56 50.0469 50.1719
Q54.8906 44.3438 54.8906 33.0156" id="DejaVuSans-68"/>
     <path d="
M39.4062 66.2188
Q28.6562 66.2188 22.3281 58.2031
Q16.0156 50.2031 16.0156 36.375
Q16.0156 22.6094 22.3281 14.5938
Q28.6562 6.59375 39.4062 6.59375
Q50.1406 6.59375 56.4219 14.5938
Q62.7031 22.6094 62.7031 36.375
Q62.7031 50.2031 56.4219 58.2031
Q50.1406 66.2188 39.4062 66.2188
M53.2188 1.3125
L66.2188 -12.8906
L54.2969 -12.8906
L43.5 -1.21875
Q41.8906 -1.3125 41.0312 -1.35938
Q40.1875 -1.42188 39.4062 -1.42188
Q24.0312 -1.42188 14.8125 8.85938
Q5.60938 19.1406 5.60938 36.375
Q5.60938 53.6562 14.8125 63.9375
Q24.0312 74.2188 39.4062 74.2188
Q54.7344 74.2188 63.9062 63.9375
Q73.0938 53.6562 73.0938 36.375
Q73.0938 23.6875 67.9844 14.6406
Q62.8906 5.60938 53.2188 1.3125" id="DejaVuSans-51"/>
     <path d="
M50.9844 -16.6094
L50.9844 -23.5781
L-0.984375 -23.5781
L-0.984375 -16.6094
z
" id="DejaVuSans-5f"/>
     <path d="
M9.42188 54.6875
L18.4062 54.6875
L18.4062 -0.984375
Q18.4062 -11.4219 14.4219 -16.1094
Q10.4531 -20.7969 1.60938 -20.7969
L-1.8125 -20.7969
L-1.8125 -13.1875
L0.59375 -13.1875
Q5.71875 -13.1875 7.5625 -10.8125
Q9.42188 -8.45312 9.42188 -0.984375
z

M9.42188 75.9844
L18.4062 75.9844
L18.4062 64.5938
L9.42188 64.5938
z
" id="DejaVuSans-6a"/>
     <path d="
M53.5156 70.5156
L53.5156 60.8906
Q47.9062 63.5781 42.9219 64.8906
Q37.9375 66.2188 33.2969 66.2188
Q25.25 66.2188 20.875 63.0938
Q16.5 59.9688 16.5 54.2031
Q16.5 49.3594 19.4062 46.8906
Q22.3125 44.4375 30.4219 42.9219
L36.375 41.7031
Q47.4062 39.5938 52.6562 34.2969
Q57.9062 29 57.9062 20.125
Q57.9062 9.51562 50.7969 4.04688
Q43.7031 -1.42188 29.9844 -1.42188
Q24.8125 -1.42188 18.9688 -0.25
Q13.1406 0.921875 6.89062 3.21875
L6.89062 13.375
Q12.8906 10.0156 18.6562 8.29688
Q24.4219 6.59375 29.9844 6.59375
Q38.4219 6.59375 43.0156 9.90625
Q47.6094 13.2344 47.6094 19.3906
Q47.6094 24.75 44.3125 27.7812
Q41.0156 30.8125 33.5 32.3281
L27.4844 33.5
Q16.4531 35.6875 11.5156 40.375
Q6.59375 45.0625 6.59375 53.4219
Q6.59375 63.0938 13.4062 68.6562
Q20.2188 74.2188 32.1719 74.2188
Q37.3125 74.2188 42.625 73.2812
Q47.9531 72.3594 53.5156 70.5156" id="DejaVuSans-53"/>
     <path d="
M44.2812 53.0781
L44.2812 44.5781
Q40.4844 46.5312 36.375 47.5
Q32.2812 48.4844 27.875 48.4844
Q21.1875 48.4844 17.8438 46.4375
Q14.5 44.3906 14.5 40.2812
Q14.5 37.1562 16.8906 35.375
Q19.2812 33.5938 26.5156 31.9844
L29.5938 31.2969
Q39.1562 29.25 43.1875 25.5156
Q47.2188 21.7812 47.2188 15.0938
Q47.2188 7.46875 41.1875 3.01562
Q35.1562 -1.42188 24.6094 -1.42188
Q20.2188 -1.42188 15.4531 -0.5625
Q10.6875 0.296875 5.42188 2
L5.42188 11.2812
Q10.4062 8.6875 15.2344 7.39062
Q20.0625 6.10938 24.8125 6.10938
Q31.1562 6.10938 34.5625 8.28125
Q37.9844 10.4531 37.9844 14.4062
Q37.9844 18.0625 35.5156 20.0156
Q33.0625 21.9688 24.7031 23.7812
L21.5781 24.5156
Q13.2344 26.2656 9.51562 29.9062
Q5.8125 33.5469 5.8125 39.8906
Q5.8125 47.6094 11.2812 51.7969
Q16.75 56 26.8125 56
Q31.7812 56 36.1719 55.2656
Q40.5781 54.5469 44.2812 53.0781" id="DejaVuSans-73"/>
     <path d="
M34.1875 63.1875
L20.7969 26.9062
L47.6094 26.9062
z

M28.6094 72.9062
L39.7969 72.9062
L67.5781 0
L57.3281 0
L50.6875 18.7031
L17.8281 18.7031
L11.1875 0
L0.78125 0
z
" id="DejaVuSans-41"/>
     <path d="
M19.6719 34.8125
L19.6719 8.10938
L35.5 8.10938
Q43.4531 8.10938 47.2812 11.4062
Q51.125 14.7031 51.125 21.4844
Q51.125 28.3281 47.2812 31.5625
Q43.4531 34.8125 35.5 34.8125
z

M19.6719 64.7969
L19.6719 42.8281
L34.2812 42.8281
Q41.5 42.8281 45.0312 45.5312
Q48.5781 48.25 48.5781 53.8125
Q48.5781 59.3281 45.0312 62.0625
Q41.5 64.7969 34.2812 64.7969
z

M9.8125 72.9062
L35.0156 72.9062
Q46.2969 72.9062 52.3906 68.2188
Q58.5 63.5312 58.5 54.8906
Q58.5 48.1875 55.375 44.2344
Q52.25 40.2812 46.1875 39.3125
Q53.4688 37.75 57.5 32.7812
Q61.5312 27.8281 61.5312 20.4062
Q61.5312 10.6406 54.8906 5.3125
Q48.25 0 35.9844 0
L9.8125 0
z
" id="DejaVuSans-42"/>
     <path d="
M9.42188 54.6875
L18.4062 54.6875
L18.4062 0
L9.42188 0
z

M9.42188 75.9844
L18.4062 75.9844
L18.4062 64.5938
L9.42188 64.5938
z
" id="DejaVuSans-69"/>
     <path d="
M8.5 21.5781
L8.5 54.6875
L17.4844 54.6875
L17.4844 21.9219
Q17.4844 14.1562 20.5 10.2656
Q23.5312 6.39062 29.5938 6.39062
Q36.8594 6.39062 41.0781 11.0312
Q45.3125 15.6719 45.3125 23.6875
L45.3125 54.6875
L54.2969 54.6875
L54.2969 0
L45.3125 0
L45.3125 8.40625
Q42.0469 3.42188 37.7188 1
Q33.4062 -1.42188 27.6875 -1.42188
Q18.2656 -1.42188 13.375 4.4375
Q8.5 10.2969 8.5 21.5781
M31.1094 56
z
" id="DejaVuSans-75"/>
     <path d="
M18.3125 70.2188
L18.3125 54.6875
L36.8125 54.6875
L36.8125 47.7031
L18.3125 47.7031
L18.3125 18.0156
Q18.3125 11.3281 20.1406 9.42188
Q21.9688 7.51562 27.5938 7.51562
L36.8125 7.51562
L36.8125 0
L27.5938 0
Q17.1875 0 13.2344 3.875
Q9.28125 7.76562 9.28125 18.0156
L9.28125 47.7031
L2.6875 47.7031
L2.6875 54.6875
L9.28125 54.6875
L9.28125 70.2188
z
" id="DejaVuSans-74"/>
     <path d="
M45.4062 46.3906
L45.4062 75.9844
L54.3906 75.9844
L54.3906 0
L45.4062 0
L45.4062 8.20312
Q42.5781 3.32812 38.25 0.953125
Q33.9375 -1.42188 27.875 -1.42188
Q17.9688 -1.42188 11.7344 6.48438
Q5.51562 14.4062 5.51562 27.2969
Q5.51562 40.1875 11.7344 48.0938
Q17.9688 56 27.875 56
Q33.9375 56 38.25 53.625
Q42.5781 51.2656 45.4062 46.3906
M14.7969 27.2969
Q14.7969 17.3906 18.875 11.75
Q22.9531 6.10938 30.0781 6.10938
Q37.2031 6.10938 41.2969 11.75
Q45.4062 17.3906 45.4062 27.2969
Q45.4062 37.2031 41.2969 42.8438
Q37.2031 48.4844 30.0781 48.4844
Q22.9531 48.4844 18.875 42.8438
Q14.7969 37.2031 14.7969 27.2969" id="DejaVuSans-64"/>
     <path d="
M34.2812 27.4844
Q23.3906 27.4844 19.1875 25
Q14.9844 22.5156 14.9844 16.5
Q14.9844 11.7188 18.1406 8.90625
Q21.2969 6.10938 26.7031 6.10938
Q34.1875 6.10938 38.7031 11.4062
Q43.2188 16.7031 43.2188 25.4844
L43.2188 27.4844
z

M52.2031 31.2031
L52.2031 0
L43.2188 0
L43.2188 8.29688
Q40.1406 3.32812 35.5469 0.953125
Q30.9531 -1.42188 24.3125 -1.42188
Q15.9219 -1.42188 10.9531 3.29688
Q6 8.01562 6 15.9219
Q6 25.1406 12.1719 29.8281
Q18.3594 34.5156 30.6094 34.5156
L43.2188 34.5156
L43.2188 35.4062
Q43.2188 41.6094 39.1406 45
Q35.0625 48.3906 27.6875 48.3906
Q23 48.3906 18.5469 47.2656
Q14.1094 46.1406 10.0156 43.8906
L10.0156 52.2031
Q14.9375 54.1094 19.5781 55.0469
Q24.2188 56 28.6094 56
Q40.4844 56 46.3438 49.8438
Q52.2031 43.7031 52.2031 31.2031" id="DejaVuSans-61"/>
     <path d="
M37.1094 75.9844
L37.1094 68.5
L28.5156 68.5
Q23.6875 68.5 21.7969 66.5469
Q19.9219 64.5938 19.9219 59.5156
L19.9219 54.6875
L34.7188 54.6875
L34.7188 47.7031
L19.9219 47.7031
L19.9219 0
L10.8906 0
L10.8906 47.7031
L2.29688 47.7031
L2.29688 54.6875
L10.8906 54.6875
L10.8906 58.5
Q10.8906 67.625 15.1406 71.7969
Q19.3906 75.9844 28.6094 75.9844
z
" id="DejaVuSans-66"/>
     <path d="
M18.1094 8.20312
L18.1094 -20.7969
L9.07812 -20.7969
L9.07812 54.6875
L18.1094 54.6875
L18.1094 46.3906
Q20.9531 51.2656 25.2656 53.625
Q29.5938 56 35.5938 56
Q45.5625 56 51.7812 48.0938
Q58.0156 40.1875 58.0156 27.2969
Q58.0156 14.4062 51.7812 6.48438
Q45.5625 -1.42188 35.5938 -1.42188
Q29.5938 -1.42188 25.2656 0.953125
Q20.9531 3.32812 18.1094 8.20312
M48.6875 27.2969
Q48.6875 37.2031 44.6094 42.8438
Q40.5312 48.4844 33.4062 48.4844
Q26.2656 48.4844 22.1875 42.8438
Q18.1094 37.2031 18.1094 27.2969
Q18.1094 17.3906 22.1875 11.75
Q26.2656 6.10938 33.4062 6.10938
Q40.5312 6.10938 44.6094 11.75
Q48.6875 17.3906 48.6875 27.2969" id="DejaVuSans-70"/>
     <path d="
M8.6875 72.9062
L18.6094 72.9062
L18.6094 28.6094
Q18.6094 16.8906 22.8438 11.7344
Q27.0938 6.59375 36.625 6.59375
Q46.0938 6.59375 50.3438 11.7344
Q54.5938 16.8906 54.5938 28.6094
L54.5938 72.9062
L64.5 72.9062
L64.5 27.3906
Q64.5 13.1406 57.4375 5.85938
Q50.3906 -1.42188 36.625 -1.42188
Q22.7969 -1.42188 15.7344 5.85938
Q8.6875 13.1406 8.6875 27.3906
z
" id="DejaVuSans-55"/>
     <path d="
M41.1094 46.2969
Q39.5938 47.1719 37.8125 47.5781
Q36.0312 48 33.8906 48
Q26.2656 48 22.1875 43.0469
Q18.1094 38.0938 18.1094 28.8125
L18.1094 0
L9.07812 0
L9.07812 54.6875
L18.1094 54.6875
L18.1094 46.1875
Q20.9531 51.1719 25.4844 53.5781
Q30.0312 56 36.5312 56
Q37.4531 56 38.5781 55.875
Q39.7031 55.7656 41.0625 55.5156
z
" id="DejaVuSans-72"/>
    </defs>
    <g transform="translate(-53.296875 239.210625)scale(0.12 -0.12)">
     <use xlink:href="#DejaVuSans-64"/>
     <use x="63.4765625" xlink:href="#DejaVuSans-65"/>
     <use x="125.0" xlink:href="#DejaVuSans-42"/>
     <use x="193.603515625" xlink:href="#DejaVuSans-72"/>
     <use x="234.716796875" xlink:href="#DejaVuSans-75"/>
     <use x="298.095703125" xlink:href="#DejaVuSans-69"/>
     <use x="325.87890625" xlink:href="#DejaVuSans-6a"/>
     <use x="353.662109375" xlink:href="#DejaVuSans-6e"/>
     <use x="417.041015625" xlink:href="#DejaVuSans-47"/>
     <use x="494.53125" xlink:href="#DejaVuSans-72"/>
     <use x="535.64453125" xlink:href="#DejaVuSans-61"/>
     <use x="596.923828125" xlink:href="#DejaVuSans-70"/>
     <use x="660.400390625" xlink:href="#DejaVuSans-68"/>
     <use x="723.779296875" xlink:href="#DejaVuSans-51"/>
     <use x="802.490234375" xlink:href="#DejaVuSans-55"/>
     <use x="875.68359375" xlink:href="#DejaVuSans-41"/>
     <use x="944.091796875" xlink:href="#DejaVuSans-53"/>
     <use x="1007.56835938" xlink:href="#DejaVuSans-54"/>
     <use x="1068.65234375" xlink:href="#DejaVuSans-5f"/>
     <use x="1118.65234375" xlink:href="#DejaVuSans-73"/>
     <use x="1170.75195312" xlink:href="#DejaVuSans-5f"/>
     <use x="1220.75195312" xlink:href="#DejaVuSans-36"/>
     <use x="1284.375" xlink:href="#DejaVuSans-2e"/>
     <use x="1316.16210938" xlink:href="#DejaVuSans-66"/>
     <use x="1351.3671875" xlink:href="#DejaVuSans-69"/>
     <use x="1379.15039062" xlink:href="#DejaVuSans-72"/>
     <use x="1420.26367188" xlink:href="#DejaVuSans-73"/>
     <use x="1472.36328125" xlink:href="#DejaVuSans-74"/>
     <use x="1511.57226562" xlink:href="#DejaVuSans-31"/>
     <use x="1575.1953125" xlink:href="#DejaVuSans-30"/>
     <use x="1638.81835938" xlink:href="#DejaVuSans-30"/>
     <use x="1702.44140625" xlink:href="#DejaVuSans-30"/>
     <use x="1766.06445312" xlink:href="#DejaVuSans-30"/>
     <use x="1829.6875" xlink:href="#DejaVuSans-30"/>
    </g>
   </g>
   <g id="text_14">
    <!-- deBruijnGraphQUAST1_s_6.first100000 -->
    <g transform="translate(-60.931875 265.250625)scale(0.12 -0.12)">
     <use xlink:href="#DejaVuSans-64"/>
     <use x="63.4765625" xlink:href="#DejaVuSans-65"/>
     <use x="125.0" xlink:href="#DejaVuSans-42"/>
     <use x="193.603515625" xlink:href="#DejaVuSans-72"/>
     <use x="234.716796875" xlink:href="#DejaVuSans-75"/>
     <use x="298.095703125" xlink:href="#DejaVuSans-69"/>
     <use x="325.87890625" xlink:href="#DejaVuSans-6a"/>
     <use x="353.662109375" xlink:href="#DejaVuSans-6e"/>
     <use x="417.041015625" xlink:href="#DejaVuSans-47"/>
     <use x="494.53125" xlink:href="#DejaVuSans-72"/>
     <use x="535.64453125" xlink:href="#DejaVuSans-61"/>
     <use x="596.923828125" xlink:href="#DejaVuSans-70"/>
     <use x="660.400390625" xlink:href="#DejaVuSans-68"/>
     <use x="723.779296875" xlink:href="#DejaVuSans-51"/>
     <use x="802.490234375" xlink:href="#DejaVuSans-55"/>
     <use x="875.68359375" xlink:href="#DejaVuSans-41"/>
     <use x="944.091796875" xlink:href="#DejaVuSans-53"/>
     <use x="1007.56835938" xlink:href="#DejaVuSans-54"/>
     <use x="1068.65234375" xlink:href="#DejaVuSans-31"/>
     <use x="1132.27539062" xlink:href="#DejaVuSans-5f"/>
     <use x="1182.27539062" xlink:href="#DejaVuSans-73"/>
     <use x="1234.375" xlink:href="#DejaVuSans-5f"/>
     <use x="1284.375" xlink:href="#DejaVuSans-36"/>
     <use x="1347.99804688" xlink:href="#DejaVuSans-2e"/>
     <use x="1379.78515625" xlink:href="#DejaVuSans-66"/>
     <use x="1414.99023438" xlink:href="#DejaVuSans-69"/>
     <use x="1442.7734375" xlink:href="#DejaVuSans-72"/>
     <use x="1483.88671875" xlink:href="#DejaVuSans-73"/>
     <use x="1535.98632812" xlink:href="#DejaVuSans-74"/>
     <use x="1575.1953125" xlink:href="#DejaVuSans-31"/>
     <use x="1638.81835938" xlink:href="#DejaVuSans-30"/>
     <use x="1702.44140625" xlink:href="#DejaVuSans-30"/>
     <use x="1766.06445312" xlink:href="#DejaVuSans-30"/>
     <use x="1829.6875" xlink:href="#DejaVuSans-30"/>
     <use x="1893.31054688" xlink:href="#DejaVuSans-30"/>
    </g>
   </g>
  </g>
 </g>
 <defs>
  <clipPath id="p7ff5b81e1d">
   <rect height="345.6" width="446.4" x="72.0" y="43.2"/>
  </clipPath>
 </defs>
</svg>
